<?xml version="1.0" encoding="utf-8"?>
<!-- Generator: Adobe Illustrator 15.0.0, SVG Export Plug-In . SVG Version: 6.00 Build 0)  -->
<!DOCTYPE svg PUBLIC "-//W3C//DTD SVG 1.1//EN" "http://www.w3.org/Graphics/SVG/1.1/DTD/svg11.dtd">
<svg version="1.1" id="Layer_1" xmlns="http://www.w3.org/2000/svg" xmlns:xlink="http://www.w3.org/1999/xlink" x="0px" y="0px"
	 width="1430.411px" height="1127.868px" viewBox="0 0 1430.411 1127.868" enable-background="new 0 0 1430.411 1127.868"
	 xml:space="preserve">
<g>
	<polygon fill="#004B40" points="369.43,594.39 294.349,594.39 294.349,646.495 	"/>
	<path fill="#004B40" d="M545.491,518.929c39.96-62.128,15.777-140.044,14.697-143.327l-10.455-31.986L364.83,457.892v-41.376
		l-70.48,0.042V503.8L100.661,622.729c-9.833,6.365-13.379,7.957-21.748,13.754c-3.688,2.57-7.209,5.648-10.597,9.253l-2.792,3.056
		c-9.032,11.488-14.57,24.535-15.867,39.29l-0.269,76.641h174.454c9.29,0,16.025,10.065,16.025,18.718c0,0,1.606,1.518,1.606,1.707
		v44.18h52.875v-64.604h42.82l170.665,317.207h61.344L367.422,711.88H106.384v-18.738c0-4.396-0.058-8.305,2.545-11.583
		l-1.017-0.042c1.386-1.443,1.792-2.192,2.376-2.635c4.975-3.71,405.514-252.275,405.514-252.275
		c1.012,19.424-1.47,43.706-14.612,63.941c-15.745,24.314-45.318,39.201-87.664,44.165l-13.448,1.554v45.498l187.955,168.595
		v-71.593L473.256,575.472C505.775,563.805,528.792,544.898,545.491,518.929"/>
	<g>
		<path fill="#004B40" d="M454.576,193.987l-46.319-57.997c-29.104,26.189-53.85,57.186-72.921,91.69l66.924,32.171
			C416.308,235.311,433.956,213.1,454.576,193.987"/>
		<path fill="#004B40" d="M385.17,295.357l-66.913-32.17c-14.708,35.527-23.766,73.979-25.984,114.212l74.27-0.032
			C368.56,348.596,375.005,321.063,385.17,295.357"/>
		<path fill="#004B40" d="M561.037,132.323L544.448,60.04c-38.257,11.171-73.784,28.688-105.428,51.352l46.267,57.886
			C508.262,153.359,533.729,140.743,561.037,132.323"/>
		<path fill="#004B40" d="M582.821,51.161l16.589,72.251c14.128-2.208,28.577-3.388,43.321-3.388
			c13.964,0,27.701,1.038,41.129,3.056l16.393-72.351c-18.738-3.109-37.936-4.79-57.521-4.79
			C622.3,45.938,602.302,47.793,582.821,51.161"/>
		<path fill="#004B40" d="M845.235,110.501c-31.977-22.675-67.914-40.117-106.509-51.104l-16.42,72.309
			c27.634,8.3,53.434,20.799,76.683,36.766L845.235,110.501z"/>
		<path fill="#004B40" d="M918.914,377.141l74.27-0.042c-2.298-40.47-11.446-79.138-26.327-114.818l-66.881,32.223
			C910.303,320.383,916.837,348.132,918.914,377.141"/>
		<path fill="#004B40" d="M882.754,259.056l66.902-32.224c-19.287-34.61-44.223-65.627-73.585-91.833l-46.235,57.986
			C850.672,212.114,868.526,234.42,882.754,259.056"/>
		<path fill="#004B40" d="M740.76,565.012h11.73v70.491H729.02v35.253h40.596c11.414,0,24.02-3.383,24.02-20.678v-85.066h29.372
			v105.744h41.113V535.645H740.76V565.012z"/>
	</g>
	<polygon fill="#004B40" points="952.228,670.745 952.228,535.634 893.483,535.634 893.483,565.006 911.104,565.006 
		911.104,670.745 	"/>
	<g>
		<path fill="#004B40" d="M987.47,535.645v89.224c0,25.842,13.765,45.888,46.12,45.888h59.946c32.334,0,52.547-20.046,52.547-45.888
			v-89.224h-41.144v87.812c0,6.239-5.67,12.047-13.438,12.047h-56.395c-7.631,0-12.395-5.808-12.395-12.047v-87.812H987.47z"/>
		<path fill="#004B40" d="M1054.583,617.881h26.875v-82.237h-35.264v75.839C1046.195,617.997,1048.355,617.881,1054.583,617.881"/>
		<path fill="#004B40" d="M1234.17,602.209v68.526h41.113v-66.376c0-51.784-17.295-68.715-70.633-68.715h-35.096v29.378h35.201
			C1227.563,570.893,1234.17,578.402,1234.17,602.209"/>
		<path fill="#004B40" d="M811.942,862.716c24.588-12.362,34.536-22.375,40.428-48.49v-73.005h-52.875v35.253h11.762v35.223
			c0,14.996-6.387,16.788-17.453,22.774l-19.623-86.779c-1.392-5.965-4.459-6.471-8.906-6.471H729.03v35.253h13.701
			c5.607,23.492,10.455,48.912,16.304,72.583l-42.894,19.835l14.428,31.069C758.424,886.998,786.11,875.7,811.942,862.716"/>
		<path fill="#004B40" d="M999.211,841.089H981.6v-58.302c0-27.106-11.52-41.546-39.543-41.546h-66.195v35.232h59.082
			c5.195,0,5.522,3.025,5.522,8.621v55.994h-64.604v35.254h123.35V841.089z"/>
		<path fill="#004B40" d="M1146.063,818.304v-77.063h-58.745v35.232h17.632v44.117c0,17.053-6.607,23.808-19.865,23.808
			c-12.331,0-21.247-6.755-21.247-23.808v-79.35h-41.124v79.35c0,38.689,25.02,57.807,62.434,57.807
			C1123.572,878.397,1146.063,861.451,1146.063,818.304"/>
	</g>
	<rect x="1181.307" y="799.976" fill="#004B40" width="41.123" height="76.367"/>
	<polygon fill="#004B40" points="1181.307,776.474 1251.803,776.474 1251.803,876.332 1292.926,876.332 1292.926,741.231 
		1181.307,741.231 	"/>
	<g>
		<path fill="#004B40" d="M811.246,1046.687h-36.044l0.264-64.637h34.126c1.507,0,1.654,1.55,1.654,3.984V1046.687z
			 M824.831,946.817H723.149v35.232h11.741v99.88h117.469V975.59C852.359,956.113,846.362,946.817,824.831,946.817"/>
	</g>
	<polygon fill="#004B40" points="881.742,982.061 899.364,982.061 899.364,1029.044 940.487,1029.044 940.487,946.817 
		881.742,946.817 	"/>
	<g>
		<path fill="#004B40" d="M1005.071,946.817h-35.222v35.254h23.481v64.615h-29.373v35.243h70.518V980.817
			C1034.475,957.009,1030.417,946.817,1005.071,946.817"/>
	</g>
	<g>
		<path fill="#004B40" d="M1140.193,981.829c0-21.753-7.83-34.99-33.799-34.99h-30.828v35.222h23.513v33.768
			c0,19.35-6.187,30.848-26.157,30.848h-14.977v35.254h13.953c20.373,0,29.268-16.304,31.691-34.61c0,0,1.286,22.859,10.708,34.61
			h36.254c-8.262-11.751-10.359-28.951-10.359-47.658V981.829z"/>
	</g>
	<rect x="1181.307" y="1005.552" fill="#004B40" width="41.123" height="76.367"/>
	<polygon fill="#004B40" points="1175.436,982.061 1251.791,982.061 1251.791,1081.93 1292.904,1081.93 1292.904,946.817 
		1175.436,946.817 	"/>
	<polygon fill="#004B40" points="1322.277,946.817 1322.277,982.071 1339.91,982.071 1339.91,1081.93 1381.023,1081.93 
		1381.023,946.817 	"/>
</g>
</svg>
